<svg xmlns="http://www.w3.org/2000/svg" viewBox="0 0 800 200" fill="none">
  <defs>
    <linearGradient id="bg" x1="0%" y1="0%" x2="100%" y2="100%">
      <stop offset="0%" style="stop-color:#0f0f23;stop-opacity:1" />
      <stop offset="100%" style="stop-color:#1a1a3e;stop-opacity:1" />
    </linearGradient>
    <linearGradient id="accent" x1="0%" y1="0%" x2="100%" y2="0%">
      <stop offset="0%" style="stop-color:#f97316" />
      <stop offset="50%" style="stop-color:#ef4444" />
      <stop offset="100%" style="stop-color:#f59e0b" />
    </linearGradient>
    <linearGradient id="glow" x1="0%" y1="0%" x2="0%" y2="100%">
      <stop offset="0%" style="stop-color:#f97316;stop-opacity:0.3" />
      <stop offset="100%" style="stop-color:#f97316;stop-opacity:0" />
    </linearGradient>
  </defs>

  <rect width="800" height="200" rx="12" fill="url(#bg)"/>

  <!-- Decorative line -->
  <line x1="60" y1="160" x2="740" y2="160" stroke="url(#accent)" stroke-width="1" opacity="0.4"/>

  <!-- Subtle grid -->
  <pattern id="grid" width="40" height="40" patternUnits="userSpaceOnUse">
    <path d="M 40 0 L 0 0 0 40" fill="none" stroke="#ffffff" stroke-width="0.3" opacity="0.05"/>
  </pattern>
  <rect width="800" height="200" fill="url(#grid)"/>

  <!-- Symbol: Anvil + Flame -->
  <g transform="translate(80, 50)">
    <!-- Flame -->
    <path d="M45,5 Q55,25 48,40 Q60,30 55,15 Q65,35 50,50 Q42,50 35,45 Q25,35 30,15 Q35,30 42,40 Q35,25 45,5Z" fill="url(#accent)" opacity="0.8"/>
    <!-- Anvil -->
    <path d="M20,60 L70,60 L75,70 Q45,75 15,70 Z" fill="#ffffff" opacity="0.9"/>
    <rect x="30" y="52" width="30" height="10" rx="2" fill="#ffffff" opacity="0.7"/>
  </g>

  <!-- Title -->
  <text x="200" y="95" font-family="'SF Mono', 'Fira Code', 'JetBrains Mono', monospace" font-size="52" font-weight="700" fill="#ffffff" letter-spacing="8">FORGEN</text>

  <!-- Subtitle -->
  <text x="200" y="125" font-family="'Inter', 'Helvetica Neue', sans-serif" font-size="15" fill="#f59e0b" letter-spacing="3" opacity="0.9">CODE, FORGED FOR YOU</text>

  <!-- Tag -->
  <rect x="200" y="138" width="160" height="22" rx="4" fill="#f97316" opacity="0.15"/>
  <text x="210" y="153" font-family="'SF Mono', monospace" font-size="11" fill="#f59e0b" opacity="0.8">Personalize.</text>

  <rect x="370" y="138" width="140" height="22" rx="4" fill="#f97316" opacity="0.15"/>
  <text x="380" y="153" font-family="'SF Mono', monospace" font-size="11" fill="#f59e0b" opacity="0.8">Forge workflow.</text>

  <rect x="520" y="138" width="150" height="22" rx="4" fill="#f97316" opacity="0.15"/>
  <text x="530" y="153" font-family="'SF Mono', monospace" font-size="11" fill="#f59e0b" opacity="0.8">Compound growth.</text>
</svg>
